<svg width="32" height="21" viewBox="0 0 32 21" fill="none" xmlns="http://www.w3.org/2000/svg">
<path fill-rule="evenodd" clip-rule="evenodd" d="M15.3917 0.918912C15.7822 0.699165 16.2608 0.707084 16.6438 0.939627L30.6438 9.43963C31.0143 9.66457 31.2405 10.0666 31.2405 10.5C31.2405 10.9334 31.0143 11.3354 30.6438 11.5604L16.6438 20.0604C16.2608 20.2929 15.7822 20.3008 15.3917 20.0811C15.0012 19.8613 14.7595 19.4481 14.7595 19V11.7405H2.00002C1.31491 11.7405 0.759521 11.1851 0.759521 10.5C0.759521 9.81488 1.31491 9.25949 2.00002 9.25949H14.7595V1.99999C14.7595 1.55191 15.0012 1.13866 15.3917 0.918912ZM17.2405 11.7405V16.7956L25.5666 11.7405H17.2405ZM25.5666 9.25949H17.2405V4.20439L25.5666 9.25949Z" fill="#173753"/>
</svg>
