<svg width="24" height="32" viewBox="0 0 24 32" fill="none" xmlns="http://www.w3.org/2000/svg">
<path fill-rule="evenodd" clip-rule="evenodd" d="M22.4 10.5375C22.3 11.1375 22.4 11.7375 22.7 12.2375L23.2 13.0375C23.8 13.9375 23.6 15.0375 23 15.8375L22.2 16.6375C21.7 17.0375 21.5 17.6374 21.5 18.2375L21.4 19.2375C21.4 20.2375 20.6 21.1374 19.6 21.3375L18.5 21.5375C17.8 21.6374 17.3 21.9375 17 22.4375L16.4 23.2375C15.8 24.1374 14.7 24.4375 13.7 24.0374L12.7 23.6375C12.1 23.3375 11.6 23.3375 11 23.6375L10.1 24.0374C9.09999 24.4375 7.99999 24.1374 7.39999 23.2375L6.69999 22.3375C6.29999 21.7375 5.79999 21.5374 5.19999 21.4375L4.19999 21.2375C3.09999 21.0374 2.39999 20.1375 2.29999 19.1375V17.9375C2.19999 17.3375 1.99999 16.8375 1.49999 16.4375L0.799995 15.7375C-5.40972e-06 15.0375 -0.100006 13.9375 0.399994 13.0375L0.999995 12.0375C1.01443 11.9941 1.02886 11.9514 1.04315 11.909C1.22678 11.3648 1.38556 10.8941 1.19999 10.3375L0.999995 9.33745C0.699994 8.23745 1.09999 7.23745 2.09999 6.73745L3.09999 6.23745C3.7 6.03745 3.99999 5.53745 4.19999 4.93745L4.49999 3.93745C4.89999 3.03745 5.89999 2.33745 6.89999 2.43745L7.99999 2.63745C8.7 2.63745 9.2 2.43745 9.59999 2.13745L10.3 1.33745C11.1 0.737451 12.3 0.737451 13.1 1.33745L14 2.13745C14.5 2.43745 15.1 2.63745 15.7 2.53745L16.7 2.43745C17.8 2.33745 18.8 2.93745 19.1 3.93745L19.5 5.13745C19.7 5.63745 20 6.13745 20.6 6.43745L21.5 6.83745C22.5 7.23745 23 8.33745 22.7 9.33745L22.4 10.5375ZM4.99999 12.6375C4.99999 16.4375 7.99999 19.5375 11.9 19.5375C15.7 19.5375 18.7 16.4375 18.8 12.6375C18.8 8.83745 15.7 5.73745 11.9 5.73745C7.99999 5.73745 4.99999 8.83745 4.99999 12.6375ZM11.8 7.23745C8.79999 7.23745 6.49999 9.63745 6.49999 12.5375C6.49999 15.5375 8.89999 17.8375 11.8 17.8375C14.7 17.8375 17.1 15.4375 17.1 12.5375C17.1 9.63745 14.8 7.23745 11.8 7.23745ZM17.2 24.4375V31.9375L11.9 29.8375L6.39999 31.9375V24.3375C7.79999 26.2375 9.49999 25.8375 11.2 25.0374C11.5 24.9375 11.8 24.9375 12.1 25.0374C14 25.8375 15.8 26.3375 17.2 24.4375Z" fill="#00C9C9"/>
</svg>
