<svg width="31" height="32" viewBox="0 0 31 32" fill="none" xmlns="http://www.w3.org/2000/svg">
<path fill-rule="evenodd" clip-rule="evenodd" d="M1.55 7.4376C1.55 4.19658 4.15899 1.5876 7.4 1.5876H23.6C26.841 1.5876 29.45 4.19658 29.45 7.4376V24.4376C29.45 27.6786 26.841 30.2876 23.6 30.2876H7.4C4.15899 30.2876 1.55 27.6786 1.55 24.4376V7.4376ZM7.4 0.287598C3.44102 0.287598 0.25 3.47861 0.25 7.4376V24.4376C0.25 28.3966 3.44102 31.5876 7.4 31.5876H23.6C27.559 31.5876 30.75 28.3966 30.75 24.4376V7.4376C30.75 3.47861 27.559 0.287598 23.6 0.287598H7.4ZM14.5 14.7376C14.5 16.1376 13.5 17.1376 12 17.1376C10.6 17.1376 9.5 16.1376 9.5 14.7376V12.4376C9.5 11.0376 10.5 10.0376 12 10.0376C13.5 10.0376 14.5 11.0376 14.5 12.4376V14.7376ZM20.4 11.7376L12.9 22.4376L11.4 21.3376L18.9 10.6376L20.4 11.7376ZM11.2 14.7376C11.2 15.2376 11.6 15.5376 12 15.5376C12.5 15.5376 12.8 15.1376 12.7 14.7376V12.5376C12.8 11.5376 11.1 11.5376 11.2 12.5376V14.7376ZM22.3 20.7376C22.3 22.1376 21.2 23.1376 19.7 23.1376C18.3 23.1376 17.2 22.1376 17.2 20.7376V18.4376C17.2 17.0376 18.2 16.0376 19.7 16.0376C21.2 16.0376 22.3 17.0376 22.3 18.4376V20.7376ZM19 20.7376C19 21.1376 19.3 21.5376 19.8 21.5376C20.2 21.5376 20.5 21.2376 20.6 20.7376V18.5376C20.6 18.0376 20.3 17.7376 19.8 17.7376C19.3 17.7376 19 18.1376 19 18.5376V20.7376Z" fill="#FF5678"/>
</svg>
