<svg width="33" height="23" viewBox="0 0 33 23" fill="none" xmlns="http://www.w3.org/2000/svg">
<path d="M30.5 11.1375C30.5 9.8375 31.4 8.6375 32.6 8.2375V2.9375C32.6 1.8375 31.7 0.9375 30.6 0.9375H2C0.9 0.9375 0 1.8375 0 2.9375V8.2375C1.2 8.6375 2.1 9.8375 2.1 11.1375C2.1 12.4375 1.2 13.6375 0 14.0375V20.3375C0 21.4375 0.9 22.3375 2 22.3375H30.5C31.6 22.3375 32.5 21.4375 32.5 20.3375V14.0375C31.4 13.6375 30.5 12.4375 30.5 11.1375ZM8.9 12.5375H7.4V14.9375H6.6V9.1375H8.8C9.2 9.1375 9.5 9.1375 9.7 9.2375C10 9.2375 10.2 9.3375 10.4 9.5375C10.6 9.6375 10.8 9.8375 10.9 10.1375C11 10.3375 11.1 10.6375 11.1 10.9375C11.1 11.4375 10.9 11.8375 10.6 12.2375C10.3 12.4375 9.7 12.5375 8.9 12.5375ZM15.4 14.9375L14.7 13.1375H12.3L11.6 14.9375H10.8L13 9.1375H13.8L16.2 14.9375H15.4ZM21 14.1375C20.8 14.4375 20.6 14.6375 20.2 14.7375C19.9 14.9375 19.5 14.9375 19.1 14.9375C18.6 14.9375 18.1 14.8375 17.8 14.7375C17.4 14.5375 17.2 14.3375 17 14.0375C16.8 13.7375 16.7 13.3375 16.7 13.0375L17.4 12.9375C17.4 13.2375 17.5 13.4375 17.6 13.6375C17.7 13.8375 17.9 13.9375 18.2 14.1375C18.5 14.2375 18.8 14.3375 19.1 14.3375C19.4 14.3375 19.7 14.3375 19.9 14.2375C20.1 14.1375 20.3 14.0375 20.4 13.8375C20.5 13.6375 20.6 13.5375 20.6 13.3375C20.6 13.1375 20.5 13.0375 20.4 12.8375C20.3 12.7375 20.1 12.5375 19.9 12.5375C19.7 12.4375 19.4 12.3375 18.9 12.2375C18.4 12.1375 18 12.0375 17.8 11.8375C17.5 11.7375 17.3 11.5375 17.2 11.3375C17.1 11.1375 17 10.8375 17 10.6375C17 10.3375 17.1 10.0375 17.3 9.8375C17.5 9.5375 17.7 9.3375 18 9.2375C18.3 9.1375 18.7 9.0375 19.1 9.0375C19.5 9.0375 19.9 9.1375 20.2 9.2375C20.5 9.3375 20.8 9.5375 21 9.8375C21.2 10.1375 21.3 10.4375 21.3 10.7375L20.6 10.8375C20.6 10.4375 20.4 10.2375 20.2 10.0375C20 9.8375 19.6 9.7375 19.2 9.7375C18.7 9.7375 18.4 9.8375 18.2 10.0375C18 10.2375 17.9 10.4375 17.9 10.6375C17.9 10.8375 18 11.0375 18.1 11.1375C18.2 11.2375 18.6 11.4375 19.3 11.5375C19.9 11.6375 20.4 11.8375 20.6 11.9375C20.9 12.1375 21.2 12.3375 21.4 12.5375C21.6 12.7375 21.6 13.0375 21.6 13.3375C21.3 13.6375 21.2 13.9375 21 14.1375ZM26.5 14.1375C26.3 14.4375 26.1 14.6375 25.7 14.7375C25.4 14.9375 25 14.9375 24.6 14.9375C24.1 14.9375 23.6 14.8375 23.3 14.7375C22.9 14.5375 22.7 14.3375 22.5 14.0375C22.3 13.7375 22.2 13.3375 22.2 13.0375L22.9 12.9375C22.9 13.2375 23 13.4375 23.1 13.6375C23.2 13.8375 23.4 13.9375 23.7 14.1375C24 14.2375 24.3 14.3375 24.6 14.3375C24.9 14.3375 25.2 14.3375 25.4 14.2375C25.6 14.1375 25.8 14.0375 25.9 13.8375C26 13.6375 26.1 13.5375 26.1 13.3375C26.1 13.1375 26 13.0375 25.9 12.8375C25.8 12.7375 25.6 12.5375 25.4 12.5375C25.2 12.4375 24.9 12.3375 24.4 12.2375C23.9 12.1375 23.5 12.0375 23.3 11.8375C23 11.7375 22.8 11.5375 22.7 11.3375C22.6 11.1375 22.5 10.8375 22.5 10.6375C22.5 10.3375 22.6 10.0375 22.7 9.8375C22.9 9.5375 23.1 9.3375 23.4 9.2375C23.7 9.1375 24.1 9.0375 24.5 9.0375C24.9 9.0375 25.3 9.1375 25.6 9.2375C25.9 9.3375 26.2 9.5375 26.4 9.8375C26.6 10.1375 26.7 10.4375 26.7 10.7375L26 10.8375C26 10.4375 25.8 10.2375 25.6 10.0375C25.4 9.8375 25 9.7375 24.6 9.7375C24.1 9.7375 23.8 9.8375 23.6 10.0375C23.4 10.2375 23.3 10.4375 23.3 10.6375C23.3 10.8375 23.4 11.0375 23.5 11.1375C23.6 11.2375 24 11.4375 24.7 11.5375C25.3 11.6375 25.8 11.8375 26 11.9375C26.3 12.1375 26.6 12.3375 26.8 12.5375C27 12.7375 27 13.0375 27 13.3375C26.7 13.6375 26.6 13.9375 26.5 14.1375Z" fill="#F8A644"/>
</svg>
