<svg width="24" height="32" viewBox="0 0 24 32" fill="none" xmlns="http://www.w3.org/2000/svg">
<g clip-path="url(#clip0)">
<path d="M17.2 24.4375V31.9375L11.9 29.8375L6.39999 31.9375V24.3375C7.79999 26.2375 9.49999 25.8375 11.2 25.0375C11.5 24.9375 11.8 24.9375 12.1 25.0375C14 25.8375 15.8 26.3375 17.2 24.4375Z" fill="#00C9C9"/>
<path d="M11.8 7.23743C8.8 7.23743 6.5 9.63743 6.5 12.5374C6.5 15.5374 8.9 17.8374 11.8 17.8374C14.7 17.8374 17.1 15.4374 17.1 12.5374C17.1 9.63743 14.8 7.23743 11.8 7.23743Z" fill="#00C9C9"/>
<path d="M23.2 13.0375L22.7 12.2375C22.4 11.7375 22.3 11.1375 22.4 10.5375L22.7 9.33745C23 8.33745 22.5 7.23745 21.5 6.83745L20.6 6.43745C20 6.13745 19.7 5.63745 19.5 5.13745L19.1 3.93745C18.8 2.93745 17.8 2.33745 16.7 2.43745L15.7 2.53745C15.1 2.63745 14.5 2.43745 14 2.13745L13.1 1.33745C12.3 0.737451 11.1 0.737451 10.3 1.33745L9.59999 2.13745C9.19999 2.43745 8.69999 2.63745 7.99999 2.63745L6.89999 2.43745C5.89999 2.33745 4.89999 3.03745 4.49999 3.93745L4.19999 4.93745C3.99999 5.53745 3.69999 6.03745 3.09999 6.23745L2.09999 6.73745C1.09999 7.23745 0.699994 8.23745 0.999994 9.33745L1.19999 10.3375C1.39999 10.9375 1.19999 11.4375 0.999994 12.0375L0.399994 13.0375C-0.100006 13.9375 -5.66244e-06 15.0375 0.799994 15.7375L1.49999 16.4375C1.99999 16.8375 2.19999 17.3375 2.29999 17.9375V19.1375C2.39999 20.1375 3.09999 21.0374 4.19999 21.2374L5.19999 21.4375C5.79999 21.5375 6.29999 21.7375 6.69999 22.3375L7.39999 23.2374C7.99999 24.1374 9.09999 24.4375 10.1 24.0375L11 23.6375C11.6 23.3375 12.1 23.3375 12.7 23.6375L13.7 24.0375C14.7 24.4375 15.8 24.1374 16.4 23.2374L17 22.4375C17.3 21.9375 17.8 21.6375 18.5 21.5375L19.6 21.3375C20.6 21.1375 21.4 20.2374 21.4 19.2374L21.5 18.2374C21.5 17.6374 21.7 17.0375 22.2 16.6375L23 15.8375C23.6 15.0375 23.8 13.9375 23.2 13.0375ZM11.9 19.5375C7.99999 19.5375 4.99999 16.4375 4.99999 12.6375C4.99999 8.83745 7.99999 5.73745 11.9 5.73745C15.7 5.73745 18.8 8.83745 18.8 12.6375C18.7 16.4375 15.7 19.5375 11.9 19.5375Z" fill="#00C9C9"/>
</g>
<defs>
<clipPath id="clip0">
<rect width="24" height="31" fill="white" transform="translate(0 0.9375)"/>
</clipPath>
</defs>
</svg>
